<svg width="60" height="59" viewBox="0 0 60 59" fill="none" xmlns="http://www.w3.org/2000/svg">
<circle cx="29.7656" cy="29.5" r="29.5" fill="url(#paint0_linear_1_849)"/>
<path d="M36.5512 19.7923C36.1065 19.9405 31.6009 21.4274 26.5337 23.0985C21.471 24.7651 17.1809 26.1802 17.0012 26.2475C16.5969 26.3913 16.3184 26.6339 16.1477 26.9753C15.977 27.3212 15.9725 27.8423 16.1298 28.1522C16.26 28.4083 16.5116 28.6733 16.7272 28.7856C16.8171 28.8305 17.9985 29.3561 19.3507 29.9491C20.7028 30.5421 21.8124 31.0317 21.8214 31.0407C21.8303 31.0497 22.1807 32.6489 22.5985 34.594C23.0208 36.5391 23.3981 38.2057 23.443 38.2956C23.6137 38.646 24.0225 38.7628 24.3774 38.5606C24.4762 38.5022 25.4106 37.8149 26.4528 37.0333L28.3485 35.6138L30.5407 37.4061C31.7446 38.3944 32.8317 39.2524 32.953 39.3198C33.2405 39.477 33.6358 39.513 33.9907 39.4052C34.3546 39.3018 34.7678 38.893 34.8801 38.5292C34.9206 38.3944 35.8684 34.4009 36.9825 29.6571C39.2061 20.1921 39.0893 20.7761 38.8512 20.3089C38.6087 19.8372 38.2044 19.5721 37.6743 19.5407C37.3868 19.5272 37.2925 19.5452 36.5512 19.7923ZM37.6294 20.9962C37.6114 21.068 36.6995 24.9403 35.6034 29.6077C34.5073 34.2751 33.5999 38.1069 33.5864 38.1159C33.5729 38.1294 33.528 38.1069 33.4876 38.071C33.4426 38.035 31.8928 36.7638 30.0376 35.2499C28.1868 33.736 26.6505 32.4827 26.6325 32.4647C26.6145 32.4468 28.1778 30.7802 30.1139 28.7587C32.0501 26.7372 33.6762 25.0122 33.7301 24.9223C33.7975 24.8145 33.8335 24.6888 33.8335 24.554C33.8335 24.3743 33.8065 24.3159 33.6628 24.1542C33.501 23.97 33.4741 23.9565 33.2225 23.943L32.9575 23.9251L27.6702 26.863L22.3874 29.8009L19.8628 28.7003C18.4792 28.0938 17.3606 27.5817 17.3831 27.5593C17.419 27.5233 37.4991 20.8839 37.6024 20.8794C37.6473 20.8749 37.6518 20.9063 37.6294 20.9962ZM29.521 27.4065C29.521 27.4155 28.5192 28.4757 27.2928 29.7559C26.0665 31.0362 25.0333 32.1413 25.0018 32.2177C24.9704 32.2895 24.7637 32.9679 24.5526 33.7225C24.337 34.4772 24.1483 35.1061 24.1303 35.1286C24.1034 35.16 23.2229 31.162 23.2139 30.9688C23.2094 30.9104 23.9731 30.4657 26.354 29.1405C28.0835 28.1792 29.503 27.3886 29.512 27.3886C29.5165 27.3886 29.521 27.3975 29.521 27.4065ZM26.6819 34.2526C26.9874 34.4997 27.2344 34.7153 27.2344 34.7333C27.2344 34.7782 25.2759 36.2382 25.2624 36.2022C25.2579 36.1843 25.3747 35.744 25.5229 35.2274C26.0081 33.5473 25.9676 33.6596 26.053 33.736C26.0934 33.772 26.3764 34.0011 26.6819 34.2526Z" fill="white"/>
<defs>
<linearGradient id="paint0_linear_1_849" x1="17.1228" y1="74.6531" x2="59.2656" y2="-8.42857" gradientUnits="userSpaceOnUse">
<stop stop-color="#0077FF"/>
<stop offset="1" stop-color="#7CADE3"/>
</linearGradient>
</defs>
</svg>
