<svg width="60" height="59" viewBox="0 0 60 59" fill="none" xmlns="http://www.w3.org/2000/svg">
<circle cx="29.6133" cy="29.5" r="29.5" fill="#BB5FF4"/>
<g clip-path="url(#clip0_1_854)">
<path d="M42.4789 25.3679C42.4791 22.7293 41.4448 20.242 39.5669 18.3641C37.689 16.4861 35.2017 15.4519 32.5628 15.4519H26.6875C26.6873 15.4519 26.6873 15.4519 26.6873 15.4519C24.0489 15.4519 21.5613 16.4861 19.6836 18.3638C17.8057 20.242 16.7715 22.7293 16.7715 25.3679V29.9863C16.7715 32.0299 17.3948 33.9955 18.5742 35.6711C19.6146 37.1492 21.0139 38.3039 22.6453 39.0359V41.6887C22.6453 43.0604 23.4133 43.5471 24.0709 43.5471C24.5408 43.5471 25.0107 43.3152 25.4681 42.858L28.4235 39.9026L32.5631 39.9023C35.2017 39.9023 37.689 38.8681 39.5669 36.9904C41.4448 35.1125 42.4791 32.625 42.4791 29.9863L42.4789 25.3679ZM32.5631 38.2561L28.0827 38.2564C27.8643 38.2564 27.6551 38.3429 27.5008 38.4973L24.3042 41.6939C24.3001 41.6982 24.2958 41.7022 24.2915 41.7063C24.2915 41.7005 24.2915 41.6945 24.2915 41.6887V38.4866C24.2915 38.1451 24.0808 37.8392 23.7619 37.7175C20.5655 36.4978 18.4179 33.3908 18.4179 29.9863V25.3679C18.4179 23.1689 19.2809 21.0949 20.8478 19.5278C22.4147 17.9611 24.4885 17.0981 26.6875 17.0981H32.5628C34.7619 17.0981 36.8359 17.9611 38.4028 19.528C39.9699 21.0951 40.8329 23.1691 40.8327 25.3679L40.8329 29.9863C40.8327 34.5464 37.1229 38.2561 32.5631 38.2561Z" fill="white"/>
<path d="M31.8131 28.9145C31.4917 28.593 30.9707 28.593 30.6491 28.9145L29.9842 29.5792L27.4077 27.003L28.0726 26.3383C28.227 26.1839 28.3138 25.9745 28.3138 25.7561C28.3138 25.5379 28.227 25.3285 28.0726 25.1741L24.9556 22.0571C24.8012 21.9027 24.592 21.8159 24.3736 21.8159C24.1554 21.8159 23.946 21.9027 23.7917 22.0571L21.6096 24.2391C20.4296 25.4191 20.4296 27.3395 21.6098 28.5201L28.4671 35.3778C29.0372 35.9478 29.7975 36.2616 30.6075 36.2616C31.4178 36.2616 32.1781 35.9478 32.7483 35.3778L34.9303 33.196C35.0847 33.0414 35.1715 32.8322 35.1715 32.6138C35.1715 32.3956 35.0847 32.1862 34.9303 32.0318L31.8131 28.9145ZM31.5841 34.2135C31.325 34.4726 30.9782 34.6154 30.6075 34.6154C30.2369 34.6154 29.8901 34.4726 29.631 34.2135L22.7739 27.356C22.2355 26.8176 22.2353 25.9413 22.7737 25.4031L24.3736 23.8029L26.3266 25.7561L25.6616 26.4208C25.5073 26.5751 25.4205 26.7845 25.4205 27.0028C25.4205 27.2212 25.5073 27.4304 25.6616 27.5849L29.402 31.3253C29.7236 31.6466 30.2447 31.6469 30.5662 31.3253L31.2311 30.6606L33.184 32.6136L31.5841 34.2135Z" fill="white"/>
<path d="M29.8251 19.0923C29.3704 19.0923 29.002 19.4608 29.002 19.9154C29.002 20.3698 29.3704 20.7385 29.8251 20.7385C31.7088 20.7385 33.4799 21.472 34.8119 22.8042C36.1441 24.1361 36.8776 25.9071 36.8776 27.791C36.8776 28.2454 37.2461 28.6141 37.7007 28.6141C38.1551 28.6141 38.5238 28.2457 38.5238 27.791C38.5238 25.4675 37.619 23.283 35.976 21.64C34.333 19.9971 32.1486 19.0923 29.8251 19.0923Z" fill="white"/>
<path d="M33.3511 27.7919C33.3511 28.2463 33.7198 28.615 34.1742 28.615C34.6288 28.615 34.9973 28.2463 34.9973 27.7919C34.9973 24.94 32.677 22.6199 29.8251 22.6199C29.3704 22.6199 29.002 22.9883 29.002 23.443C29.002 23.8976 29.3704 24.2661 29.8251 24.2661C31.7694 24.2661 33.3511 25.8478 33.3511 27.7919Z" fill="white"/>
</g>
<defs>
<clipPath id="clip0_1_854">
<rect width="28.0952" height="28.0952" fill="white" transform="translate(15.5645 15.4519)"/>
</clipPath>
</defs>
</svg>
