<svg width="59" height="59" viewBox="0 0 59 59" fill="none" xmlns="http://www.w3.org/2000/svg">
<circle cx="29.5" cy="29.5" r="29.5" fill="url(#paint0_linear_1_844)"/>
<g clip-path="url(#clip0_1_844)">
<path d="M39.4572 19.5431C36.9487 17.0346 33.6264 15.6531 30.1023 15.6531C22.8089 15.6531 16.8574 21.6054 16.8574 28.898C16.8574 31.056 17.3873 33.1864 18.3928 35.0802L16.8803 41.1801C16.8148 41.444 16.8924 41.7231 17.0848 41.9155C17.276 42.1069 17.5547 42.1859 17.8202 42.12L23.92 40.6073C25.8139 41.6128 27.9443 42.1429 30.1023 42.1429C33.6264 42.1429 36.9487 40.7613 39.4572 38.2528C41.9657 35.7441 43.3472 32.422 43.3472 28.898C43.3472 25.3739 41.9657 22.0516 39.4572 19.5431ZM30.1023 40.5907C28.1056 40.5907 26.1363 40.0768 24.4069 39.1049C24.2347 39.0081 24.032 38.9806 23.8398 39.0281L18.6967 40.3035L19.972 35.1603C20.0197 34.9685 19.9922 34.7656 19.8954 34.5932C18.9233 32.864 18.4096 30.8947 18.4096 28.898C18.4096 22.4505 23.6549 17.2052 30.1023 17.2052C36.5497 17.2052 41.7951 22.4505 41.7951 28.898C41.7951 35.3454 36.5497 40.5907 30.1023 40.5907Z" fill="white"/>
<path d="M37.1072 31.2543C36.5928 30.7397 36.0265 30.2203 35.3723 29.9048C34.3948 29.4337 33.4621 29.5687 32.7458 30.285C32.4198 30.611 31.9714 31.2537 31.7133 31.5697C31.0476 31.4584 29.7176 30.3369 29.1895 29.8107C28.6634 29.2826 27.5427 27.9523 27.4314 27.288C27.7457 27.0314 28.3906 26.5811 28.7163 26.2555C29.4326 25.5392 29.5676 24.6063 29.0965 23.629C28.781 22.9746 28.2616 22.4085 27.7475 21.8943C26.7002 20.825 25.0848 20.7462 23.6905 22.1407C22.6485 23.1825 21.7202 25.114 23.2141 28.3992C24.0981 30.3426 25.5227 32.0615 26.225 32.7708L26.2305 32.7763C26.9399 33.4788 28.6587 34.9034 30.6021 35.7872C32.797 36.7854 35.1494 37.0222 36.8608 35.311C38.2761 33.8955 38.1569 32.2821 37.1072 31.2543ZM35.7632 34.2134C34.7525 35.2241 33.2323 35.2783 31.2446 34.3743C29.4997 33.5806 27.9197 32.264 27.3253 31.676C26.7374 31.0815 25.4207 29.5016 24.627 27.7567C23.723 25.769 23.7772 24.2488 24.7879 23.2381C25.3778 22.6482 26.0569 22.3865 26.6385 22.9804L26.6497 22.9918C28.0274 24.3695 27.9296 24.847 27.6187 25.1579C27.3429 25.4337 26.5274 25.9875 26.2638 26.251C25.6452 26.8695 25.7604 27.8274 26.606 29.098C27.1107 29.8565 27.7772 30.5926 28.0916 30.9079L28.0933 30.9097C28.4087 31.2241 29.1446 31.8907 29.9031 32.3953C31.1739 33.2409 32.1317 33.3559 32.7501 32.7375C33.0138 32.4737 33.5674 31.6585 33.8432 31.3826C34.0534 31.1724 34.2606 31.0922 34.6981 31.3032C35.2054 31.5477 35.7485 32.0908 36.0096 32.3517L36.0209 32.3628C36.6195 32.9491 36.3533 33.6233 35.7632 34.2134Z" fill="white"/>
</g>
<defs>
<linearGradient id="paint0_linear_1_844" x1="46.9592" y1="-12.6429" x2="22.2755" y2="59" gradientUnits="userSpaceOnUse">
<stop stop-color="#54E784"/>
<stop offset="1" stop-color="#38CC68"/>
</linearGradient>
<clipPath id="clip0_1_844">
<rect width="26.4898" height="26.4898" fill="white" transform="translate(16.8574 15.6531)"/>
</clipPath>
</defs>
</svg>
